<?xml version="1.0" encoding="UTF-8"?>
<svg id="Layer_2" xmlns="http://www.w3.org/2000/svg" viewBox="0 0 370.6 86.96">
  <defs>
    <style>
      .cls-1 {
        fill: #181818;
      }
    </style>
  </defs>
  <g id="Layer_1-2" data-name="Layer_1">
    <g>
      <g>
        <path class="cls-1" d="M56.46,18.64h14.38v66.58h-14.38v-9.59c-5.46,7.59-13.18,11.32-23.3,11.32-9.19,0-16.91-3.33-23.44-10.12C3.2,70.05,0,61.66,0,51.93s3.2-18.11,9.72-24.9c6.53-6.79,14.25-10.12,23.44-10.12,10.12,0,17.84,3.73,23.3,11.19v-9.45ZM35.42,73.24c5.99,0,11.05-2,15.05-5.99,3.99-4.13,5.99-9.19,5.99-15.31s-2-11.19-5.99-15.18c-3.99-4.13-9.05-6.13-15.05-6.13s-11.05,2-15.05,6.13c-3.99,3.99-5.99,9.06-5.99,15.18s2,11.19,5.99,15.31c4,3.99,9.06,5.99,15.05,5.99Z"/>
        <path class="cls-1" d="M122.77,32.49h-16.51v31.96c0,8.52,5.59,8.39,16.51,7.86v12.92c-21.97,2.66-30.89-3.33-30.89-20.77v-31.96h-12.25v-13.85h12.25V4.26l14.38-4.26v18.64h16.51v13.85Z"/>
        <path class="cls-1" d="M232.37,43.94v41.28h-14.38v-40.35c0-9.19-4.93-14.52-12.92-14.52-8.92,0-14.52,5.86-14.52,17.58v37.29h-14.38v-40.35c0-9.19-4.53-14.52-12.52-14.52-8.66,0-14.78,5.99-14.78,17.58v37.29h-14.38V18.64h14.38v7.99c4.26-6.53,10.65-9.72,19.04-9.72s14.78,3.46,18.91,10.52c4.39-7.06,11.19-10.52,20.37-10.52,15.05,0,25.17,10.52,25.17,27.03Z"/>
        <path class="cls-1" d="M295.88,18.64h14.38v66.58h-14.38v-9.59c-5.46,7.59-13.18,11.32-23.3,11.32-9.19,0-16.91-3.33-23.44-10.12-6.52-6.79-9.72-15.18-9.72-24.9s3.2-18.11,9.72-24.9c6.53-6.79,14.25-10.12,23.44-10.12,10.12,0,17.84,3.73,23.3,11.19v-9.45ZM274.84,73.24c5.99,0,11.05-2,15.05-5.99,3.99-4.13,5.99-9.19,5.99-15.31s-2-11.19-5.99-15.18c-3.99-4.13-9.05-6.13-15.05-6.13s-11.05,2-15.05,6.13c-3.99,3.99-5.99,9.06-5.99,15.18s2,11.19,5.99,15.31c4,3.99,9.06,5.99,15.05,5.99Z"/>
      </g>
      <path class="cls-1" d="M347.34.16c-12.82,0-23.25,10.43-23.25,23.25s10.43,23.25,23.25,23.25,23.25-10.43,23.25-23.25S360.16.16,347.34.16ZM368.16,23.41c0,2.36-.4,4.63-1.13,6.75l-17.39-27.43c10.4,1.15,18.52,9.98,18.52,20.68ZM334.82,23.41l12.52-19.76,12.52,19.76-12.52,19.76-12.52-19.76ZM345.05,2.73l-17.39,27.43c-.73-2.12-1.13-4.39-1.13-6.75,0-10.7,8.12-19.54,18.52-20.68ZM328.82,32.88l4.56-7.19,11.67,18.41c-7.09-.78-13.11-5.13-16.23-11.21ZM349.64,44.09l11.67-18.41,4.56,7.19c-3.12,6.08-9.14,10.43-16.23,11.21Z"/>
    </g>
  </g>
</svg>