<?xml version="1.0" encoding="UTF-8"?>
<svg id="Layer_2" xmlns="http://www.w3.org/2000/svg" viewBox="0 0 116.96 116.96">
  <defs>
    <style>
      .cls-1 {
        fill: #181818;
      }
    </style>
  </defs>
  <g id="Layer_1-2" data-name="Layer_1">
    <path class="cls-1" d="M58.48,0C26.23,0,0,26.23,0,58.48s26.23,58.48,58.48,58.48,58.48-26.23,58.48-58.48S90.73,0,58.48,0ZM111.19,58.48c0,6.12-1.06,12-2.99,17.47L63.9,6.04c26.53,2.72,47.3,25.2,47.3,52.44ZM26.65,58.48L58.48,8.27l31.83,50.21-31.83,50.21-31.83-50.21ZM53.06,6.04L8.75,75.95c-1.93-5.47-2.99-11.35-2.99-17.47C5.77,31.24,26.53,8.76,53.06,6.04ZM11.51,82.37l11.73-18.5,29.82,47.05c-18.16-1.86-33.6-12.99-41.55-28.55ZM63.9,110.92l29.82-47.05,11.73,18.5c-7.95,15.56-23.39,26.69-41.55,28.55Z"/>
  </g>
</svg>